<svg viewBox="0 0 35 35" xmlns="http://www.w3.org/2000/svg"><path d="M15.04 17.7c0 .796-.695 1.494-1.49 1.494-.396 0-.793-.2-.992-.498-.198-.3-.397-.698-.397-1.096 0-.797.695-1.495 1.49-1.495.396 0 .793.2.992.498.297.3.397.698.397 1.096zm5.558-2.193l3.871-3.885c.596-.598 1.489-.598 2.084 0 .596.598.596 1.494 0 2.092l-3.87 3.886 3.87 3.885c.596.598.596 1.495 0 2.092-.595.598-1.488.598-2.084 0l-3.871-3.885-4.864 4.882 3.871 3.885c.596.598.596 1.495 0 2.093-.595.597-1.488.597-2.084 0l-8.734-8.768c-2.383-2.391-2.383-6.077 0-8.469l1.786-1.793c.596-.598 1.489-.598 2.085 0 .595.598.595 1.495 0 2.092l-1.787 1.794c-1.191 1.195-1.191 3.088 0 4.184l2.78 2.79 4.863-4.882-2.78-2.79c-2.382-2.39-2.382-6.077 0-8.468l1.787-1.794c.596-.597 1.489-.597 2.084 0 .596.598.596 1.495 0 2.093L17.82 8.334c-1.191 1.196-1.191 3.089 0 4.184l2.779 2.99z" fill="#1ea4d7"/></svg>